<svg xmlns="http://www.w3.org/2000/svg" viewBox="0 0 512 512" fill="none">
  <defs>
    <linearGradient id="bg1" x1="0%" y1="0%" x2="100%" y2="100%">
      <stop offset="0%" stop-color="#7C3AED"/>
      <stop offset="100%" stop-color="#EC4899"/>
    </linearGradient>
    <linearGradient id="arrow1" x1="0%" y1="100%" x2="100%" y2="0%">
      <stop offset="0%" stop-color="#FFFFFF" stop-opacity="0.9"/>
      <stop offset="100%" stop-color="#FFFFFF"/>
    </linearGradient>
  </defs>
  <!-- Rounded square background -->
  <rect width="512" height="512" rx="112" fill="url(#bg1)"/>
  <!-- Upward rocket/arrow representing viral growth -->
  <path d="M256 100 C256 100 160 220 160 310 C160 363 204 406 256 406 C308 406 352 363 352 310 C352 220 256 100 256 100Z" fill="url(#arrow1)"/>
  <!-- Inner flame detail -->
  <path d="M256 220 C256 220 216 290 216 330 C216 352 234 370 256 370 C278 370 296 352 296 330 C296 290 256 220 256 220Z" fill="url(#bg1)"/>
  <!-- Small spark dots -->
  <circle cx="180" cy="160" r="12" fill="white" opacity="0.6"/>
  <circle cx="340" cy="140" r="8" fill="white" opacity="0.5"/>
  <circle cx="370" cy="200" r="10" fill="white" opacity="0.4"/>
</svg>
